<?xml version="1.0" encoding="UTF-8"?>
<svg data-bbox="0 0 278 73.4" viewBox="0 0 278 73.3" xmlns="http://www.w3.org/2000/svg" data-type="color">
    <g>
        <path d="M100.1 73.3c-.7 0-1.2-.5-1.2-1.2 0-.2.1-.4.2-.6L108 59c4.3-6.2 5-6.8 5-13.1V2.4c0-1.3 1.1-2.4 2.4-2.4h7.2c1.3 0 2.4 1.1 2.4 2.4v45c0 6.4-2 9.2-6 14.9l-7.5 10.2c-.4.5-1 .9-1.7.9h-9.7z" fill="#0070b9" data-color="1"/>
        <path d="M32.9 26.7c0-.3.3-.5.3-.5 2.5-1.5 6.2-5.2 6.2-11.4C39.4 4.7 30.6 0 22.7 0H2.4C1.1 0 0 1.1 0 2.4V52c0 1.3 1.1 2.4 2.4 2.4H24c8.2 0 17-4.8 17-14.5 0-7.7-5.1-11.3-7.8-12.7 0 0-.3-.2-.3-.5zM12.1 10.3c0-.7.5-1.2 1.2-1.2h5c3.2 0 8.6.7 8.6 6.4 0 5.5-5.9 6.3-8.3 6.3h-5.3c-.7 0-1.2-.5-1.2-1.2V10.3zM22.9 45c-1.1.2-2.8.3-4.1.3h-5.6c-.7 0-1.2-.5-1.2-1.2V33.4c0-.7.5-1.2 1.2-1.2h5.9c1.1 0 2.8.1 3.8.3 1 .2 5.2 1.2 5.2 6.5.1 4.3-4.1 5.8-5.2 6z" fill="#0070b9" data-color="1"/>
        <path d="M85.8 22.1c.1-.2.3-.3.5-.3.3 0 .6.3.6.6V52c0 1.3 1.1 2.4 2.4 2.4h7.2c1.3 0 2.4-1.1 2.4-2.4V2.4c0-1.3-1.1-2.4-2.4-2.4h-7.7c-.8 0-1.6.4-2 1.1l-12.2 17c-.1.1-.3.2-.5.2s-.4-.1-.5-.2l-12.2-17C61 .5 60.2 0 59.4 0h-7.5c-1.5 0-2.6 1-2.6 2.5V52c0 1.3 1.1 2.4 2.4 2.4h7.2c1.3 0 2.4-1.1 2.4-2.4V22.4c0-.3.3-.6.6-.6.2 0 .4.1.5.3l8.9 12.6c.4.6 1.1 1 1.9 1h1.4c.8 0 1.5-.4 1.9-1l9.3-12.6z" fill="#0070b9" data-color="1"/>
        <path d="M138.9 31.6c1.7-.3 3-.8 3.9-1.5.9-.7 1.4-1.8 1.4-3.1V0h3.4v26.8c0 2.3-.7 4.1-2.2 5.4-1.5 1.2-3.4 2-5.9 2.3l-.6-2.9z" fill="#5e6167" data-color="2"/>
        <path d="M157.5 28.3c-1.2-.6-2.2-1.5-3-2.5-.8-1-1.4-2.2-1.8-3.5-.4-1.3-.6-2.6-.6-4 0-1.3.2-2.7.6-3.9.4-1.3 1-2.4 1.8-3.4s1.8-1.8 3-2.4c1.2-.6 2.6-.9 4.2-.9s3 .3 4.2.9c1.2.6 2.2 1.4 3 2.4.8 1 1.4 2.1 1.8 3.4.4 1.3.6 2.6.6 4 0 1.3-.2 2.7-.6 4-.4 1.3-1 2.4-1.8 3.4s-1.8 1.8-3 2.4c-1.2.6-2.6.9-4.2.9-1.6.1-3-.2-4.2-.8zM157 24c.5.7 1.2 1.4 2 1.8.8.5 1.7.7 2.7.7 1.1 0 2-.2 2.8-.7.8-.5 1.4-1.1 2-1.8.5-.8.9-1.6 1.2-2.6s.4-2 .4-3-.1-2-.4-3c-.3-1-.7-1.8-1.2-2.6s-1.2-1.4-2-1.8c-.8-.5-1.7-.7-2.8-.7-1.1 0-2 .2-2.8.7-.8.5-1.4 1.1-2 1.8-.5.8-.9 1.6-1.2 2.6-.3 1-.4 1.9-.4 2.9s.1 2 .4 3c.4 1 .7 1.9 1.3 2.7z" fill="#5e6167" data-color="2"/>
        <path d="M179.1 21.4c0 1.8.4 3.1 1.2 3.9.8.8 2.1 1.2 3.7 1.2 1.1 0 2.1-.2 3.2-.7 1-.4 1.9-1 2.6-1.6v-16h3.4v20.5h-3.1l-.2-1.6c-.8.6-1.7 1.1-2.7 1.5-1 .4-2.2.6-3.7.6-2.7 0-4.7-.7-5.9-2s-1.8-3.3-1.8-6v-13h3.3v13.2z" fill="#5e6167" data-color="2"/>
        <path d="M198.9 28.7V8.2h3l.3 1.8c.5-.6 1.2-1.1 2.1-1.6.9-.5 1.7-.7 2.6-.7.6 0 1.2 0 1.7.1s.9.2 1.2.3l-.6 3.1c-.7-.3-1.6-.5-2.7-.5-.8 0-1.6.2-2.4.7-.8.5-1.4.9-2 1.4v16h-3.2z" fill="#5e6167" data-color="2"/>
        <path d="M212.5 28.7V8.2h3.1l.2 1.6c.8-.6 1.8-1.1 2.9-1.5 1.1-.4 2.3-.6 3.5-.6 2.8 0 4.8.7 6 2.1s1.7 3.4 1.7 6.2v12.8h-3.3V15.9c0-1.7-.4-3.1-1.2-4-.8-1-2-1.5-3.8-1.5-1.1 0-2.2.2-3.2.7-1 .5-1.9 1-2.7 1.6v16.1h-3.2z" fill="#5e6167" data-color="2"/>
        <path d="m247 28.7-.2-1.8c-.7.7-1.5 1.3-2.5 1.7-.9.4-2 .6-3.1.6-.9 0-1.8-.1-2.6-.4s-1.6-.7-2.2-1.2c-.6-.5-1.2-1.2-1.6-2-.4-.8-.6-1.7-.6-2.8 0-1.5.4-2.7 1.2-3.6.8-.9 1.8-1.7 3-2.3 1.2-.6 2.5-1 4-1.2 1.5-.2 2.9-.3 4.3-.3v-.3c0-1.7-.4-3-1.1-3.7-.7-.7-1.8-1.1-3.2-1.1-.9 0-1.8.2-2.6.6-.8.4-1.5 1-2 1.7l-2.3-1.6c.8-1.1 1.8-1.9 2.9-2.5s2.6-.8 4.3-.8c2.3 0 4.1.6 5.4 1.8 1.3 1.2 1.9 3.1 1.9 5.9v13.4h-3zm-.3-10.7c-.9 0-1.9.1-3 .2s-2 .3-2.9.7-1.6.8-2.2 1.4-.9 1.5-.9 2.5c0 .7.1 1.2.4 1.7.3.5.6.8 1 1.1.4.3.8.5 1.3.6.5.1.9.2 1.4.2 1 0 1.9-.2 2.8-.6.8-.4 1.6-.9 2.3-1.5V18z" fill="#5e6167" data-color="2"/>
        <path d="M255.6 28.7V0h3.3v28.7h-3.3z" fill="#5e6167" data-color="2"/>
        <path d="M265.7 23.6c.5.9 1.1 1.6 1.9 2.1.8.5 1.8.8 3.1.8 2.8 0 4.2-1 4.2-3 0-.6-.1-1.1-.3-1.5-.2-.4-.5-.8-.9-1.1-.4-.3-1-.6-1.6-.9-.7-.3-1.5-.6-2.4-1-1-.3-1.9-.7-2.6-1.1-.7-.4-1.3-.8-1.8-1.3s-.8-1-1-1.5-.3-1.2-.3-2c0-1.7.6-3 1.8-3.9 1.2-.9 2.8-1.4 4.8-1.4 1.7 0 3.1.3 4.2.8s2.1 1.4 2.8 2.4l-2.3 1.8c-.6-.7-1.2-1.3-2-1.7-.8-.5-1.6-.7-2.6-.7-1.2 0-2.1.2-2.7.7-.6.5-.9 1.1-.9 1.7 0 .4.1.8.2 1.1.2.3.4.6.8.9.4.3.9.5 1.6.8.6.3 1.5.6 2.5.9 1.9.7 3.3 1.5 4.3 2.5s1.5 2.3 1.5 4c0 1-.2 1.8-.6 2.6-.4.8-.9 1.4-1.5 1.9s-1.4.9-2.3 1.2c-.9.3-1.9.4-2.9.4-2 0-3.6-.4-4.8-1.1s-2.1-1.7-2.8-2.8l2.6-1.6z" fill="#5e6167" data-color="2"/>
    </g>
</svg>
